<svg xmlns="http://www.w3.org/2000/svg" width="43.989" height="16.791" viewBox="0 0 43.989 16.791"><defs><style>.a{fill:red;stroke-linecap:round;stroke-linejoin:round;stroke-width:2px;}.a,.b{stroke:#282949;}.b{fill:#282949;stroke-miterlimit:10;}</style></defs><g transform="translate(0.196 9.015) rotate(-13)"><g transform="translate(0 0)"><line class="a" x2="42.684" transform="translate(0 4.46)"/><g transform="translate(4.835 0)"><path class="b" d="M2.323,8.481c1.375,0,2.49-1.967,2.49-4.395a6.544,6.544,0,0,0-.634-2.9A2.1,2.1,0,0,0,2.489,0C1.115,0,0,1.967,0,4.395A6.546,6.546,0,0,0,.635,7.3,2.1,2.1,0,0,0,2.323,8.481Z" transform="translate(27.763 0)"/><path class="b" d="M2.323,8.481c1.375,0,2.489-1.967,2.489-4.395a6.53,6.53,0,0,0-.635-2.9A2.1,2.1,0,0,0,2.489,0C1.114,0,0,1.967,0,4.395A6.546,6.546,0,0,0,.634,7.3,2.1,2.1,0,0,0,2.323,8.481Z" transform="translate(13.882 0)"/><path class="b" d="M2.323,8.481c1.375,0,2.49-1.967,2.49-4.395a6.547,6.547,0,0,0-.635-2.9A2.1,2.1,0,0,0,2.491,0C1.115,0,0,1.967,0,4.395A6.546,6.546,0,0,0,.635,7.3,2.1,2.1,0,0,0,2.323,8.481Z" transform="translate(0)"/></g><path class="b" d="M0,0" transform="translate(29.968 13.086)"/></g></g></svg>